# xmcd
#
# Track frame offsets:
# 150
# 15227
# 33227
# 43940
# 59884
# 76700
# 103226
# 123630
# 135463
# 154670
# 170659
# 192151
# 214951
# 235113
# 249540
# 275288
#
# Disc length: 3925 seconds
#
#
# Revision: 0
# Processed by: cddbd v1.5.2PL0 Copyright (c) Steve Scherf et al.
# Submitted via: FreeRIP 2.53 
#
DISCID=dd0f5310
DTITLE=Arnet Howard and Friends - With Grateful Heart I Thank You, Lord
DYEAR=2012
DGENRE=Blues
TTITLE0=With Grateful Heart I Thank You, Loard
TTITLE1=It's A Matter of Time
TTITLE2=I'm Walking
TTITLE3=Get Up Smiling
TTITLE4=They All Asked For You
TTITLE5=Elijah's Wooden Book
TTITLE6=You've Got What It Takes
TTITLE7=Mama, Make Some, Please!
TTITLE8=Jammin' At The Treehouse
TTITLE9=Jump, Jive and Wail
TTITLE10=Step Time
TTITLE11=Gimme' One Reason
TTITLE12=Heartburn Blues
TTITLE13=Ahead of the Hounds
TTITLE14=Turrkey in the Straw
TTITLE15=Bring Us Together Again
EXTD=
EXTT0=
EXTT1=
EXTT2=
EXTT3=
EXTT4=
EXTT5=
EXTT6=
EXTT7=
EXTT8=
EXTT9=
EXTT10=
EXTT11=
EXTT12=
EXTT13=
EXTT14=
EXTT15=
PLAYORDER=
